<?xml version="1.0"?>
<svg xmlns="http://www.w3.org/2000/svg" xmlns:xlink="http://www.w3.org/1999/xlink" xmlns:svgjs="http://svgjs.com/svgjs" version="1.1" width="512" height="512" x="0" y="0" viewBox="0 0 512 512" style="enable-background:new 0 0 512 512" xml:space="preserve" class=""><g><g xmlns="http://www.w3.org/2000/svg"><g><path d="m164.804 347.189c7.488 7.488 19.628 7.488 27.116 0l21.089-21.089c28.224-28.224 28.224-74.147 0-102.371l-87.889-87.889c-19.898-19.898-19.898-52.274 0-72.171s52.274-19.898 72.171 0l125.516 125.516c7.488 7.488 19.628 7.488 27.116 0s7.488-19.628 0-27.116l-125.515-125.517c-34.85-34.85-91.554-34.85-126.404 0s-34.85 91.554 0 126.404l87.889 87.889c13.272 13.272 13.272 34.867 0 48.139l-21.089 21.089c-7.488 7.488-7.488 19.628 0 27.116z" fill="#ffffff" data-original="#f9f6f9" style="" class=""/><g fill="#dddaec"><path d="m115.42 53.969c34.85-34.85 91.554-34.85 126.404 0l-17.416-17.416c-34.85-34.85-91.554-34.85-126.404 0s-34.85 91.554 0 126.404l17.416 17.416c-34.85-34.85-34.85-91.554 0-126.404z" fill="#ffffff" data-original="#dddaec" style="" class=""/><path d="m182.22 337.49 21.089-21.089c13.272-13.272 13.272-34.867 0-48.139l-17.416-17.416c13.272 13.272 13.272 34.867 0 48.139l-21.089 21.089c-7.488 7.488-7.488 19.628 0 27.116 3.317 3.317 7.547 5.157 11.881 5.536-.477-5.451 1.363-11.065 5.535-15.236z" fill="#ffffff" data-original="#dddaec" style="" class=""/></g><path d="m182.522 131.373 198.097 198.097c19.034 19.034 49.893 19.034 68.927 0l40.664-40.664c19.034-19.034 19.034-49.893 0-68.927l-198.097-198.096c-19.034-19.034-49.893-19.034-68.927 0l-40.664 40.664c-19.033 19.033-19.033 49.893 0 68.926z" fill="#ffffff" data-original="#f6eeda" style="" class=""/><path d="m219.123 25.857-36.593 36.593c-19.035 19.036-19.036 49.894-.007 68.923l198.097 198.098c19.036 19.036 49.894 19.036 68.93 0l36.593-36.593c-19.036 19.036-49.894 19.036-68.93 0l-198.097-198.098c-19.029-19.029-19.029-49.887.007-68.923z" fill="#ffffff" data-original="#efe1c1" style="" class=""/><path d="m195.128 402.001-85.147-85.147c-7.6-7.6-7.6-19.922 0-27.522 7.6-7.6 19.922-7.6 27.522 0l85.147 85.147c7.6 7.6 7.6 19.922 0 27.522-7.6 7.6-19.922 7.6-27.522 0z" fill="#fffdfd" data-original="#bc95e2" style="" class=""/><path d="m147.781 354.655-37.8-37.8c-7.599-7.599-7.599-19.924 0-27.523 3.803-3.803 8.779-5.701 13.761-5.694 4.983-.007 9.965 1.898 13.761 5.694l37.8 37.8c-3.796-3.796-8.779-5.701-13.761-5.694-4.982-.007-9.958 1.891-13.761 5.694-7.599 7.599-7.6 19.924 0 27.523z" fill="#ffffff" data-original="#ac80dd" style="" class=""/><path d="m48.215 494.551-30.784-30.784c-13.256-13.256-13.256-34.748 0-48.003l71.728-71.728c13.256-13.256 34.748-13.256 48.003 0l30.784 30.784c13.256 13.256 13.256 34.748 0 48.003l-71.728 71.728c-13.255 13.256-34.747 13.256-48.003 0z" fill="#fffdfd" data-original="#bc95e2" style="" class=""/><path d="m490.208 288.809v-15.14c0-9.61-7.8-17.399-17.409-17.399-4.81 0-9.15 1.95-12.3 5.1s-5.1 7.49-5.1 12.299v140.356c0 6.88-2.79 13.11-7.29 17.61-4.6 4.59-10.98 7.409-18.03 7.29-13.68-.23-24.469-11.78-24.469-25.46v-207.964c0-5.72-2.32-10.89-6.06-14.64-3.8-3.79-9.06-6.12-14.86-6.06-11.44.12-20.479 9.8-20.479 21.229v4.57c0 7.02-2.84 13.38-7.45 17.979-4.6 4.6-10.95 7.45-17.979 7.45-14.05 0-25.429-11.39-25.429-25.429v-90.957c0-5.99-2.43-11.42-6.36-15.34-4-4.01-9.58-6.46-15.71-6.36-11.92.2-21.329 10.27-21.329 22.189v2.1c0 6.29-2.55 11.98-6.67 16.1-4.21 4.19-10.02 6.76-16.44 6.67-12.53-.18-22.439-10.75-22.439-23.279v-101.116c19.1-17.85 49.069-17.459 67.708 1.18l198.094 198.094c19.031 19.029 19.031 49.889.001 68.928z" fill="#ffffff" data-original="#e28086" style="" class=""/><g fill="#dd636e"><path d="m336.649 210.601v-90.957c0-5.99-2.43-11.42-6.36-15.34-4-4.01-9.58-6.46-15.71-6.36-4.136.069-7.969 1.329-11.212 3.44 1.312.844 2.53 1.821 3.626 2.919 3.93 3.92 6.36 9.35 6.36 15.34v90.957c0 14.04 11.38 25.429 25.429 25.429 4.203 0 8.158-1.025 11.646-2.827-8.183-4.225-13.779-12.759-13.779-22.601z" fill="#fffdfd" data-original="#dd636e" style="" class=""/><path d="m247.702 121.724v-101.117c6.286-5.875 13.751-9.76 21.601-11.683-15.496-3.802-32.489.087-44.896 11.683v101.117c0 12.53 9.91 23.099 22.439 23.28 4.414.062 8.54-1.134 12.056-3.249-6.729-4.095-11.2-11.619-11.2-20.031z" fill="#fffdfd" data-original="#dd636e" style="" class=""/><path d="m428.906 413.465v-207.964c0-5.72-2.32-10.89-6.06-14.64-3.8-3.79-9.06-6.12-14.86-6.06-4.222.044-8.112 1.398-11.346 3.653 1.04.717 2.019 1.517 2.911 2.406 3.74 3.75 6.06 8.92 6.06 14.64v207.964c0 13.68 10.79 25.23 24.469 25.46 4.401.075 8.542-.997 12.151-2.929-7.958-4.306-13.325-12.886-13.325-22.53z" fill="#fffdfd" data-original="#dd636e" style="" class=""/></g><path d="m47.251 493.595-29.821-29.821c-13.26-13.26-13.253-34.756 0-48.009l71.729-71.729c13.253-13.253 34.743-13.253 48.002.007l29.821 29.821c-13.253-13.253-34.742-13.253-47.996 0l-71.729 71.729c-13.252 13.253-13.259 34.749-.006 48.002z" fill="#ffffff" data-original="#ac80dd" style="" class=""/></g><path d="m511.945 254.389c0-15.02-5.851-29.14-16.474-39.757l-198.06-198.06c-21.549-21.561-55.864-22.158-78.121-1.358-.971.901-3.216 3.177-4.183 4.137-38.035-25.514-89.537-20.857-122.375 11.98-18.273 18.269-28.337 42.594-28.337 68.494s10.064 50.227 28.337 68.5l87.875 87.875c4.999 5 7.752 11.661 7.749 18.756-.002 7.096-2.758 13.759-7.761 18.762l-14.057 14.065-23.713-23.713c-10.51-10.511-27.613-10.511-38.123 0-10.51 10.51-10.51 27.612 0 38.123l4.619 4.619c-9.609.883-18.529 5.047-25.438 11.956l-21.756 21.746c-2.929 2.928-2.93 7.676-.002 10.605 2.928 2.93 7.676 2.929 10.605.002l21.757-21.748c4.996-4.996 11.636-7.747 18.698-7.747 7.06 0 13.697 2.751 18.691 7.748l30.8 30.791c10.285 10.314 10.281 27.072-.017 37.37l-71.72 71.72c-4.991 4.995-11.629 7.745-18.692 7.745s-13.701-2.751-18.695-7.748l-30.782-30.772c-10.303-10.312-10.303-27.09-.002-37.4l28.865-28.865c2.929-2.928 2.929-7.676 0-10.605-2.928-2.929-7.676-2.929-10.605 0l-28.865 28.87c-16.145 16.157-16.145 42.446.003 58.606l30.782 30.772c7.823 7.83 18.229 12.142 29.3 12.142s21.477-4.312 29.298-12.14l71.718-71.718c7.099-7.099 11.075-16.157 11.932-25.454l4.639 4.639c5.255 5.255 12.158 7.882 19.061 7.882s13.806-2.627 19.061-7.882c5.091-5.091 7.896-11.861 7.896-19.061s-2.804-13.97-7.896-19.061l-23.708-23.707 14.067-14.06c31.137-31.147 31.136-81.82-.001-112.957l-87.874-87.874c-16.963-16.971-16.963-44.585-.001-61.555 11.927-11.927 29.785-15.645 45.279-10.237-9.656 10.418-14.957 23.883-14.957 38.169 0 15.022 5.851 29.144 16.474 39.76l198.057 198.057c6.427 6.436 14.216 11.162 22.79 13.869v64.821c0 17.87 14.283 32.648 31.836 32.943.191.003.38.005.571.005 8.646 0 16.755-3.357 22.881-9.483 6.121-6.107 9.491-14.241 9.491-22.906v-87.289l32.608-32.608c10.624-10.623 16.475-24.744 16.475-39.764zm-294.591 142.333c-4.663 4.663-12.25 4.663-16.913 0l-85.133-85.133c-4.663-4.663-4.663-12.25 0-16.913 4.663-4.662 12.25-4.662 16.913 0l85.133 85.133c4.663 4.663 4.663 12.251 0 16.913zm-97.518-338.273c-22.805 22.817-22.805 59.943.001 82.761l87.875 87.875c25.291 25.291 25.29 66.449.001 91.747l-14.068 14.06-16.503-16.504 14.059-14.066c7.833-7.833 12.149-18.261 12.152-29.361.003-11.103-4.309-21.532-12.142-29.365l-87.875-87.875c-15.441-15.441-23.944-36.002-23.944-57.896s8.503-42.452 23.944-57.889c27.043-27.043 69.062-31.48 100.931-11.743l-17.166 17.166c-22.136-10.865-49.559-6.617-67.265 11.09zm328.03 355.602c0 4.652-1.806 9.016-5.092 12.295-3.366 3.366-7.846 5.167-12.599 5.093-9.425-.158-17.093-8.21-17.093-17.948v-111.571c0-4.141-3.357-7.499-7.499-7.499-4.141 0-7.499 3.357-7.499 7.499v30.711c-4.504-2.035-8.627-4.871-12.181-8.43l-198.063-198.063c-7.79-7.785-12.08-18.139-12.08-29.154s4.29-21.369 12.081-29.156l29.072-29.072v83.034c0 16.732 13.381 30.537 29.83 30.774 8.233.129 15.997-3.03 21.844-8.864 5.717-5.717 8.866-13.317 8.866-21.4v-2.1c0-7.97 6.259-14.56 13.949-14.688 3.906-.055 7.539 1.413 10.289 4.17 2.68 2.673 4.157 6.235 4.157 10.029v90.945c0 18.155 14.765 32.924 32.914 32.924 8.792 0 17.06-3.425 23.274-9.639 6.223-6.21 9.651-14.48 9.651-23.285v-4.57c0-7.494 5.857-13.652 13.055-13.728 3.547-.04 6.946 1.338 9.471 3.856 2.496 2.503 3.87 5.82 3.87 9.343v66.629c0 4.141 3.357 7.499 7.499 7.499 4.141 0 7.499-3.357 7.499-7.499v-66.629c0-7.52-2.929-14.599-8.263-19.947-5.411-5.397-12.598-8.338-20.231-8.248-15.382.162-27.897 13.047-27.897 28.725v4.57c0 4.793-1.863 9.292-5.253 12.675-3.387 3.387-7.888 5.252-12.675 5.252-9.879 0-17.917-8.042-17.917-17.927v-90.945c0-7.807-3.041-15.139-8.549-20.634-5.637-5.65-13.153-8.697-21.142-8.561-15.824.266-28.699 13.582-28.699 29.684v2.1c0 4.077-1.589 7.911-4.467 10.789-2.954 2.947-6.875 4.527-11.033 4.48-8.296-.12-15.045-7.198-15.045-15.778v-97.668c16.302-13.111 39.841-12.009 54.894 3.052l198.063 198.063c7.79 7.785 12.08 18.138 12.08 29.15 0 3.35-.402 6.637-1.174 9.811-3.745-9.02-12.646-15.381-23.012-15.381-13.728 0-24.896 11.168-24.896 24.896v140.336zm14.997-140.336c0-5.458 4.44-9.898 9.908-9.898 5.458 0 9.899 4.44 9.899 9.898v12.031l-19.807 19.807z" fill="#ffffff" data-original="#000000" style="" class=""/></g></g></svg>
